<?xml version="1.0" standalone="no"?>
<!DOCTYPE svg PUBLIC "-//W3C//DTD SVG 20010904//EN"
 "http://www.w3.org/TR/2001/REC-SVG-20010904/DTD/svg10.dtd">
<svg version="1.0" xmlns="http://www.w3.org/2000/svg"
 width="512.000000pt" height="512.000000pt" viewBox="0 0 512.000000 512.000000"
 preserveAspectRatio="xMidYMid meet">
<metadata>
Created by potrace 1.11, written by Peter Selinger 2001-2013
</metadata>
<g transform="translate(0.000000,512.000000) scale(0.100000,-0.100000)"
fill="#000000" stroke="none">
<path d="M2435 2735 l0 -1065 97 0 97 0 7 48 c13 87 14 88 67 47 114 -87 235
-123 396 -119 309 7 535 200 613 523 21 88 28 280 14 366 -4 22 -9 56 -12 75
-3 19 -10 43 -15 53 -5 9 -8 17 -5 17 10 0 -48 127 -79 175 -103 154 -237 231
-425 241 -167 10 -322 -40 -438 -142 -48 -42 -52 -44 -53 -22 0 13 -1 212 -2
443 l-2 420 -130 3 -130 3 0 -1066z m725 141 c132 -26 230 -134 277 -306 21
-80 24 -311 4 -380 -7 -25 -13 -46 -12 -47 0 -2 -14 -31 -31 -65 -48 -92 -128
-168 -208 -199 -54 -20 -83 -24 -170 -24 -99 0 -110 2 -170 32 -69 34 -149
104 -151 132 0 9 -1 164 -1 346 l1 329 43 42 c80 76 192 135 278 146 34 5 98
2 140 -6z"/>
<path d="M1784 3755 c-116 -51 -126 -224 -18 -287 128 -74 284 33 252 174 -22
100 -137 155 -234 113z"/>
<path d="M1729 3028 c0 -29 -1 -350 -3 -713 -2 -363 -6 -676 -9 -695 -4 -19
-9 -49 -11 -65 -9 -56 -43 -154 -70 -198 -32 -57 -104 -121 -189 -170 l-65
-39 27 -46 c65 -110 93 -152 99 -148 4 2 25 11 47 21 65 30 180 112 226 163
100 110 167 258 185 407 3 28 10 70 14 95 5 25 9 359 10 743 l0 697 -130 0
-130 0 -1 -52z"/>
</g>
</svg>
