<?xml version="1.0" standalone="no"?>
<!DOCTYPE svg PUBLIC "-//W3C//DTD SVG 20010904//EN"
 "http://www.w3.org/TR/2001/REC-SVG-20010904/DTD/svg10.dtd">
<svg version="1.0" xmlns="http://www.w3.org/2000/svg"
 width="512.000000pt" height="512.000000pt" viewBox="0 0 512.000000 512.000000"
 preserveAspectRatio="xMidYMid meet">
<metadata>
Created by potrace 1.11, written by Peter Selinger 2001-2013
</metadata>
<g transform="translate(0.000000,512.000000) scale(0.100000,-0.100000)"
fill="#000000" stroke="none">
<path d="M4375 3951 c-64 -27 -81 -110 -32 -158 20 -21 37 -28 67 -28 116 0
130 170 15 190 -16 2 -39 1 -50 -4z"/>
<path d="M675 3701 c-64 -27 -81 -110 -32 -158 60 -61 162 -19 162 67 0 66
-72 116 -130 91z"/>
<path d="M3190 3590 c0 -18 -7 -20 -79 -20 -106 0 -141 -8 -141 -31 0 -14 -7
-19 -25 -19 -20 0 -25 -5 -25 -25 0 -18 5 -25 20 -25 13 0 20 -7 20 -20 0 -17
7 -20 45 -20 38 0 45 3 45 20 0 17 7 20 50 20 43 0 50 -3 50 -20 0 -15 -7 -20
-25 -20 -25 0 -25 -1 -25 -90 l0 -90 -45 0 c-38 0 -45 -3 -45 -20 0 -19 -7
-20 -225 -20 -218 0 -225 1 -225 20 0 19 -7 20 -110 20 l-110 0 0 45 0 45 45
0 c38 0 45 3 45 20 0 18 7 20 65 20 63 0 65 1 65 25 0 23 -4 25 -45 25 -38 0
-45 3 -45 20 0 17 -7 20 -45 20 -38 0 -45 -3 -45 -20 0 -17 -7 -20 -45 -20
-38 0 -45 3 -45 20 0 18 -7 20 -67 20 -38 0 -98 3 -135 7 l-68 6 0 -27 c0 -21
-5 -26 -26 -26 -21 0 -25 -4 -22 -22 2 -15 11 -24 26 -26 14 -2 22 -10 22 -23
0 -16 7 -19 45 -19 38 0 45 -3 45 -19 0 -16 9 -21 45 -27 35 -5 45 -10 45 -25
0 -12 7 -19 20 -19 17 0 20 -7 20 -45 0 -38 -3 -45 -20 -45 -17 0 -20 -7 -20
-45 0 -38 -3 -45 -19 -45 -16 0 -21 -9 -27 -45 -5 -35 -10 -45 -25 -45 -16 0
-19 -8 -19 -45 0 -41 -2 -45 -25 -45 -18 0 -25 -5 -25 -20 0 -17 -7 -20 -40
-20 -33 0 -40 3 -40 20 0 19 -7 20 -180 20 -172 0 -180 -1 -180 -19 0 -17 -8
-20 -47 -23 -41 -3 -48 -6 -51 -25 -3 -19 -10 -23 -43 -23 -32 0 -39 -3 -39
-20 0 -15 -7 -20 -25 -20 -20 0 -25 -5 -25 -25 0 -20 -5 -25 -25 -25 -20 0
-25 -5 -25 -25 0 -18 -5 -25 -20 -25 -17 0 -20 -7 -20 -40 0 -36 -2 -40 -25
-40 -23 0 -25 -4 -25 -45 0 -38 -3 -45 -20 -45 -19 0 -20 -7 -20 -185 0 -178
1 -185 20 -185 17 0 20 -7 20 -45 0 -41 2 -45 25 -45 23 0 25 -4 25 -45 0 -38
3 -45 20 -45 13 0 20 -7 20 -20 0 -15 7 -20 25 -20 20 0 25 -5 25 -25 0 -18 5
-25 20 -25 13 0 20 -7 20 -20 0 -15 7 -20 25 -20 18 0 25 -5 25 -19 0 -16 9
-21 45 -27 35 -5 45 -10 45 -25 0 -18 9 -19 115 -19 108 0 115 -1 115 -20 0
-13 7 -20 20 -20 13 0 20 7 20 20 0 19 7 20 90 20 83 0 90 1 90 20 0 17 7 20
45 20 41 0 45 2 45 25 0 20 5 25 25 25 18 0 25 5 25 20 0 13 7 20 20 20 15 0
20 7 20 25 0 20 5 25 25 25 18 0 25 5 25 20 0 13 7 20 20 20 15 0 20 7 20 25
0 20 5 25 25 25 23 0 25 4 25 45 l0 45 40 0 c32 0 40 -4 40 -19 0 -22 58 -35
109 -25 l31 6 0 -51 c0 -44 -3 -51 -20 -51 -17 0 -20 -7 -20 -39 l0 -39 74 -7
c40 -3 90 -3 110 0 34 7 36 9 36 46 0 37 -1 38 -45 45 l-45 6 0 64 c0 62 1 64
25 64 18 0 25 5 25 20 0 13 7 20 20 20 15 0 20 7 20 25 0 20 5 25 25 25 25 0
25 1 25 79 0 106 -8 141 -31 141 -14 0 -19 7 -19 25 0 20 5 25 25 25 18 0 25
5 25 20 0 13 7 20 20 20 17 0 20 7 20 45 0 41 2 45 25 45 20 0 25 5 25 25 0
18 5 25 20 25 17 0 20 -7 20 -45 0 -41 -2 -45 -25 -45 -25 0 -25 -1 -25 -90 0
-83 -1 -90 -20 -90 -17 0 -20 -7 -20 -45 0 -38 3 -45 20 -45 19 0 20 -7 20
-90 0 -89 0 -90 25 -90 23 0 25 -4 25 -45 0 -38 3 -45 20 -45 15 0 20 -7 20
-25 0 -20 5 -25 25 -25 22 0 25 -4 25 -39 0 -39 0 -40 45 -47 35 -5 45 -10 45
-25 0 -12 7 -19 19 -19 13 0 21 -8 23 -22 2 -19 10 -24 46 -26 34 -3 42 -7 42
-23 0 -17 8 -19 95 -19 88 0 95 -1 95 -20 0 -13 7 -20 20 -20 13 0 20 7 20 20
0 19 7 20 90 20 83 0 90 1 90 20 0 17 7 20 45 20 41 0 45 2 45 25 0 23 4 25
45 25 38 0 45 3 45 19 0 13 8 21 23 23 14 2 23 11 25 26 2 14 10 22 23 22 12
0 19 7 19 19 0 13 8 21 23 23 18 2 23 10 25 46 3 34 7 42 23 42 16 0 19 7 19
50 0 42 3 50 19 50 25 0 31 35 31 175 0 140 -6 175 -31 175 -16 0 -19 8 -19
50 0 43 -3 50 -19 50 -15 0 -21 10 -26 40 -5 30 -11 40 -26 40 -14 0 -19 7
-19 25 0 18 -5 25 -19 25 -13 0 -21 8 -23 23 -2 14 -11 23 -25 25 -15 2 -23
10 -23 23 0 16 -7 19 -45 19 -41 0 -45 2 -45 25 0 23 -4 25 -45 25 -38 0 -45
3 -45 20 0 19 -7 20 -180 20 l-180 0 0 70 c0 63 -2 70 -20 70 -18 0 -20 7 -20
79 0 106 -8 141 -31 141 -17 0 -19 9 -19 90 l0 90 45 0 c37 0 45 3 45 19 0 15
10 20 45 25 36 6 45 11 45 27 0 12 7 19 20 19 15 0 20 7 20 25 0 18 -5 25 -20
25 -13 0 -20 7 -20 20 0 19 -7 20 -90 20 -83 0 -90 -1 -90 -20z m-50 -520 c0
-33 -3 -40 -20 -40 -15 0 -20 -7 -20 -25 0 -18 -5 -25 -19 -25 -13 0 -21 -8
-23 -22 -2 -15 -11 -24 -25 -26 -15 -2 -23 -10 -23 -23 0 -12 -7 -19 -19 -19
-16 0 -21 -9 -27 -45 -5 -35 -10 -45 -25 -45 -12 0 -19 -7 -19 -19 0 -13 -8
-21 -22 -23 -15 -2 -24 -11 -26 -25 -2 -15 -10 -23 -23 -23 -14 0 -19 -7 -19
-25 0 -18 -5 -25 -20 -25 -13 0 -20 -7 -20 -20 0 -15 -7 -20 -25 -20 -23 0
-25 -4 -25 -45 0 -41 -2 -45 -25 -45 -18 0 -25 -5 -25 -20 0 -17 -7 -20 -40
-20 -33 0 -40 3 -40 20 0 17 -7 20 -44 20 -42 0 -44 2 -50 33 -9 50 3 97 25
97 14 0 19 7 19 25 0 23 -4 25 -45 25 l-45 0 0 45 c0 38 -3 45 -20 45 -17 0
-20 7 -20 53 0 87 -10 127 -31 127 -17 0 -19 8 -19 65 l0 65 380 0 380 0 0
-40z m-850 -115 c0 -58 2 -65 20 -65 18 0 20 -7 22 -72 1 -40 1 -92 -1 -115
-2 -40 0 -43 23 -43 24 0 26 -3 26 -45 0 -38 3 -45 20 -45 17 0 20 -7 20 -40
0 -33 -3 -40 -20 -40 -13 0 -20 7 -20 20 0 13 -7 20 -19 20 -15 0 -20 10 -25
45 -6 36 -11 45 -27 45 -14 0 -19 7 -19 25 0 18 -5 25 -20 25 -13 0 -20 7 -20
20 0 15 -7 20 -25 20 -20 0 -25 5 -25 25 0 18 -5 25 -19 25 -22 0 -33 41 -24
94 4 26 11 36 24 36 16 0 19 8 19 45 0 41 2 45 25 45 18 0 25 5 25 20 0 13 7
20 20 20 18 0 20 -7 20 -65z m900 -90 c0 -18 -5 -25 -20 -25 -13 0 -20 -7 -20
-20 0 -15 -7 -20 -25 -20 -18 0 -25 -5 -25 -20 0 -15 -7 -20 -25 -20 -20 0
-25 -5 -25 -25 0 -18 -5 -25 -20 -25 -13 0 -20 -7 -20 -20 0 -13 -7 -20 -20
-20 -13 0 -20 7 -20 20 0 13 7 20 20 20 15 0 20 7 20 25 0 18 5 25 19 25 15 0
21 10 26 40 5 30 11 40 26 40 14 0 19 7 19 25 0 23 4 25 45 25 41 0 45 -2 45
-25z m-1212 -120 c1 -1 0 -21 -4 -44 -5 -31 -11 -41 -25 -41 -16 0 -19 -8 -19
-45 0 -38 -3 -45 -19 -45 -15 0 -21 -10 -26 -40 -5 -30 -11 -40 -26 -40 -16 0
-19 7 -19 40 0 33 -3 40 -20 40 -17 0 -19 -8 -22 -87 l-3 -88 -42 -3 c-41 -3
-42 -4 -48 -47 -4 -24 -4 -62 0 -84 6 -38 9 -40 50 -47 l44 -6 -6 -64 -6 -64
27 0 c24 0 26 3 26 45 l0 45 45 0 c41 0 45 -2 45 -25 0 -24 2 -25 70 -25 63 0
70 -2 70 -20 0 -18 7 -20 65 -20 58 0 65 -2 65 -19 0 -13 -8 -21 -22 -23 -19
-2 -24 -10 -26 -45 -3 -40 -5 -42 -43 -48 -29 -5 -39 -11 -39 -26 0 -14 -7
-19 -25 -19 -18 0 -25 -5 -25 -19 0 -21 -40 -31 -127 -31 -46 0 -53 -3 -53
-20 0 -17 -7 -20 -45 -20 -37 0 -45 3 -45 19 0 17 -11 20 -90 26 -79 6 -90 9
-90 26 0 12 -7 19 -19 19 -13 0 -21 8 -23 23 -2 14 -11 23 -25 25 -15 2 -23
10 -23 23 0 12 -7 19 -19 19 -13 0 -21 8 -23 23 -2 14 -11 23 -25 25 -19 3
-23 10 -23 43 0 31 -4 39 -19 39 -16 0 -19 11 -24 93 -3 50 -3 131 0 180 5 76
8 87 24 87 16 0 19 8 19 45 0 41 2 45 25 45 20 0 25 5 25 25 0 18 5 25 20 25
13 0 20 7 20 20 0 15 7 20 25 20 20 0 25 5 25 25 0 23 4 25 45 25 38 0 45 3
45 20 0 17 8 20 68 23 62 3 283 -3 290 -8z m1615 5 c40 0 47 -3 47 -20 0 -17
7 -20 45 -20 41 0 45 -2 45 -25 0 -18 5 -25 19 -25 15 0 21 -10 26 -39 6 -36
10 -40 45 -46 37 -6 39 -8 42 -48 2 -35 7 -43 26 -45 22 -3 22 -5 22 -177 0
-172 0 -174 -22 -177 -19 -2 -24 -10 -26 -45 -3 -35 -7 -43 -23 -43 -14 0 -19
-7 -19 -25 0 -20 -5 -25 -25 -25 -18 0 -25 -5 -25 -20 0 -13 -7 -20 -20 -20
-15 0 -20 -7 -20 -25 0 -23 -4 -25 -45 -25 -37 0 -45 -3 -45 -19 0 -21 -40
-31 -127 -31 -46 0 -53 -3 -53 -20 0 -15 -7 -20 -25 -20 -18 0 -25 5 -25 20 0
17 -7 20 -52 20 -88 0 -128 10 -128 31 0 12 -7 19 -20 19 -13 0 -20 7 -20 19
0 16 -9 21 -45 27 -44 6 -45 7 -45 44 0 32 -4 39 -22 42 -15 2 -24 11 -26 26
-2 14 -10 22 -23 22 -16 0 -19 7 -19 45 0 38 -3 45 -20 45 -15 0 -20 7 -20 25
0 18 5 25 20 25 13 0 20 7 20 20 0 13 -7 20 -20 20 -19 0 -20 7 -20 90 0 83 1
90 20 90 17 0 20 7 20 45 0 38 3 45 20 45 13 0 20 7 20 20 0 15 7 20 25 20 23
0 25 4 25 44 l0 44 45 6 c36 6 45 11 45 27 0 28 38 25 42 -3 2 -15 11 -24 26
-26 21 -3 22 -7 22 -113 0 -102 1 -109 20 -109 15 0 20 -7 20 -25 0 -20 5 -25
25 -25 25 0 25 -1 25 -84 l0 -83 62 -6 c34 -3 66 -3 70 -1 4 3 8 34 8 70 0 57
2 64 20 64 13 0 20 7 20 20 0 17 -7 20 -45 20 l-45 0 0 50 c0 43 -3 50 -19 50
-15 0 -21 10 -26 40 -5 30 -11 40 -26 40 -16 0 -19 7 -19 50 0 43 -3 50 -20
50 -17 0 -20 7 -20 39 0 39 0 40 43 44 23 3 71 3 107 1 36 -2 86 -4 113 -4z
m-1475 -86 c28 -6 31 -10 34 -48 2 -34 7 -42 26 -44 14 -2 22 -10 22 -23 0
-12 7 -19 20 -19 17 0 20 -7 20 -45 l0 -45 -110 0 c-103 0 -110 -1 -110 -20 0
-13 -7 -20 -19 -20 -24 0 -31 33 -24 112 5 48 9 58 24 58 16 0 19 8 19 44 0
41 2 45 28 49 15 2 30 5 33 6 4 0 20 -2 37 -5z m842 -24 c0 -13 -7 -20 -20
-20 -13 0 -20 7 -20 20 0 13 7 20 20 20 13 0 20 -7 20 -20z m-360 -220 c0 -13
-7 -20 -20 -20 -13 0 -20 7 -20 20 0 13 7 20 20 20 13 0 20 -7 20 -20z m-310
-50 c0 -13 -7 -20 -20 -20 -13 0 -20 -7 -20 -20 0 -15 -7 -20 -25 -20 -18 0
-25 5 -25 20 0 15 -7 20 -25 20 -18 0 -25 -5 -25 -20 0 -19 -7 -20 -90 -20
-83 0 -90 1 -90 20 0 15 7 20 25 20 18 0 25 5 25 20 0 19 7 20 135 20 128 0
135 -1 135 -20z m180 0 c0 -17 -7 -20 -45 -20 -38 0 -45 3 -45 20 0 17 7 20
45 20 38 0 45 -3 45 -20z m256 -70 c8 0 14 -9 14 -20 0 -13 -7 -20 -19 -20
-16 0 -21 -9 -27 -45 -6 -44 -7 -45 -45 -45 -32 0 -39 3 -39 20 0 13 7 20 20
20 17 0 20 7 20 51 l0 52 31 -7 c17 -3 38 -6 45 -6z m-566 -60 c0 -15 7 -20
28 -20 63 0 102 -12 102 -31 0 -14 -7 -19 -25 -19 -18 0 -25 -5 -25 -20 0 -13
-7 -20 -20 -20 -13 0 -20 7 -20 20 0 19 -7 20 -110 20 -101 0 -110 2 -110 19
0 15 -10 20 -45 25 -36 6 -45 11 -45 27 0 18 8 19 135 19 128 0 135 -1 135
-20z m310 -50 c0 -13 7 -20 20 -20 15 0 20 -7 20 -26 0 -24 -3 -26 -31 -20
-17 3 -38 6 -45 6 -8 0 -14 9 -14 20 0 13 -7 20 -20 20 -13 0 -20 7 -20 20 0
17 7 20 45 20 38 0 45 -3 45 -20z"/>
<path d="M1480 2550 c0 -13 7 -20 20 -20 13 0 20 7 20 20 0 13 -7 20 -20 20
-13 0 -20 -7 -20 -20z"/>
<path d="M1530 2510 c0 -13 7 -20 20 -20 13 0 20 7 20 20 0 13 -7 20 -20 20
-13 0 -20 -7 -20 -20z"/>
<path d="M1617 2483 c-4 -3 -7 -15 -7 -25 0 -13 7 -18 25 -18 20 0 25 -5 25
-26 0 -21 4 -25 23 -22 14 2 23 11 25 26 3 18 -1 22 -22 22 -21 0 -26 5 -26
25 0 18 -5 25 -18 25 -10 0 -22 -3 -25 -7z"/>
<path d="M1570 2280 c0 -17 7 -20 45 -20 38 0 45 3 45 20 0 17 -7 20 -45 20
-38 0 -45 -3 -45 -20z"/>
<path d="M1660 2190 c0 -13 -7 -20 -20 -20 -17 0 -20 -7 -20 -45 0 -38 3 -45
20 -45 15 0 20 7 20 25 0 18 5 25 19 25 13 0 20 10 25 31 9 47 8 49 -19 49
-18 0 -25 -5 -25 -20z"/>
<path d="M1480 2060 c0 -13 7 -20 20 -20 13 0 20 7 20 20 0 13 -7 20 -20 20
-13 0 -20 -7 -20 -20z"/>
<path d="M3730 2550 c0 -13 7 -20 20 -20 13 0 20 7 20 20 0 13 -7 20 -20 20
-13 0 -20 -7 -20 -20z"/>
<path d="M3578 2483 c-25 -4 -28 -8 -28 -44 0 -35 3 -39 25 -39 18 0 25 5 25
20 0 13 7 20 20 20 15 0 20 7 20 25 0 26 -3 27 -62 18z"/>
<path d="M3218 2303 c-20 -3 -28 -10 -28 -24 0 -17 7 -19 65 -19 57 0 65 2 65
19 0 13 -10 20 -31 25 -17 3 -34 5 -38 5 -3 -1 -18 -4 -33 -6z"/>
<path d="M3550 2280 c0 -18 7 -20 65 -20 58 0 65 2 65 20 0 18 -7 20 -65 20
-58 0 -65 -2 -65 -20z"/>
<path d="M3327 2213 c-4 -3 -7 -15 -7 -25 0 -11 -7 -18 -20 -18 -15 0 -20 -7
-20 -26 0 -21 4 -25 23 -22 14 2 23 11 25 26 2 14 10 22 23 22 14 0 19 7 19
25 0 18 -5 25 -18 25 -10 0 -22 -3 -25 -7z"/>
<path d="M3510 2190 c0 -13 7 -20 20 -20 15 0 20 -7 20 -25 0 -18 5 -25 19
-25 27 0 33 13 25 55 -6 33 -9 35 -45 35 -32 0 -39 -3 -39 -20z"/>
<path d="M3420 2125 c0 -38 3 -45 20 -45 17 0 20 7 20 45 0 38 -3 45 -20 45
-17 0 -20 -7 -20 -45z"/>
<path d="M3690 2100 c0 -13 7 -20 20 -20 13 0 20 -7 20 -20 0 -13 7 -20 20
-20 13 0 20 7 20 20 0 13 -7 20 -20 20 -13 0 -20 7 -20 20 0 13 -7 20 -20 20
-13 0 -20 -7 -20 -20z"/>
<path d="M3640 2010 c0 -13 7 -20 20 -20 13 0 20 7 20 20 0 13 -7 20 -20 20
-13 0 -20 -7 -20 -20z"/>
<path d="M1275 801 c-64 -27 -81 -110 -32 -158 60 -61 162 -19 162 67 0 66
-72 116 -130 91z"/>
</g>
</svg>
