<?xml version="1.0" standalone="no"?>
<!DOCTYPE svg PUBLIC "-//W3C//DTD SVG 20010904//EN"
 "http://www.w3.org/TR/2001/REC-SVG-20010904/DTD/svg10.dtd">
<svg version="1.0" xmlns="http://www.w3.org/2000/svg"
 width="512.000000pt" height="512.000000pt" viewBox="0 0 512.000000 512.000000"
 preserveAspectRatio="xMidYMid meet">
<metadata>
Created by potrace 1.11, written by Peter Selinger 2001-2013
</metadata>
<g transform="translate(0.000000,512.000000) scale(0.100000,-0.100000)"
fill="#000000" stroke="none">
<path d="M2413 4587 c-4 -6 -7 -2940 -4 -3095 1 -22 1 -23 138 -20 l137 3 7
30 c4 17 12 58 19 92 7 35 16 63 20 63 4 0 18 -9 31 -21 84 -74 219 -145 327
-174 103 -26 141 -30 287 -29 161 0 256 20 382 80 97 46 152 84 234 161 171
162 289 419 315 688 5 54 5 284 0 315 -3 14 -7 45 -10 70 -50 383 -259 675
-556 774 -102 34 -155 41 -295 40 -247 -1 -457 -88 -635 -263 -13 -13 -15 58
-18 637 -2 511 -5 652 -15 653 -69 5 -360 2 -364 -4z m1108 -1362 c200 -67
334 -260 375 -540 10 -74 12 -290 2 -349 -5 -28 -10 -62 -12 -76 -6 -37 -44
-147 -68 -194 -74 -147 -176 -240 -322 -295 -80 -30 -123 -36 -241 -36 -167 0
-290 53 -414 176 l-51 51 0 502 0 503 58 57 c64 64 194 154 262 181 125 50
298 58 411 20z"/>
<path d="M1478 4538 c-44 -12 -108 -65 -140 -115 -30 -50 -32 -170 -4 -222 64
-119 231 -168 343 -100 121 72 159 193 99 313 -54 107 -173 157 -298 124z"/>
<path d="M1370 3521 c-1 -9 -2 -473 -4 -1031 -2 -558 -6 -1033 -10 -1055 -4
-22 -11 -69 -17 -105 -27 -176 -94 -332 -182 -421 -42 -42 -169 -139 -182
-139 -4 0 -101 -57 -114 -66 -2 -2 12 -27 31 -56 19 -29 59 -92 88 -140 29
-49 59 -88 66 -88 21 0 165 80 245 136 82 58 195 171 247 248 69 102 138 262
161 376 19 92 21 103 27 165 4 33 8 63 10 67 13 22 18 354 19 1183 l0 940
-192 1 c-172 2 -193 0 -193 -15z"/>
</g>
</svg>
